<svg width="362" height="483" viewBox="0 0 362 483" fill="none" xmlns="http://www.w3.org/2000/svg">
<path d="M261.444 120.75V80.5C261.444 36.0237 225.446 0 181 0C136.554 0 100.556 36.0237 100.556 80.5V120.75H0V483H362V120.75H261.444ZM120.667 80.5C120.667 47.2938 147.817 20.125 181 20.125C214.183 20.125 241.333 47.2938 241.333 80.5V120.75H120.667V80.5ZM321.778 442.75H40.2222V161H100.556V191.188C100.556 196.823 104.98 201.25 110.611 201.25C116.242 201.25 120.667 196.823 120.667 191.188V161H241.333V191.188C241.333 196.823 245.758 201.25 251.389 201.25C257.02 201.25 261.444 196.823 261.444 191.188V161H321.778V442.75Z" fill="black"/>
<circle cx="181" cy="302" r="60" fill="black"/>
</svg>
