<svg width="57" height="40" viewBox="0 0 57 40" fill="none" xmlns="http://www.w3.org/2000/svg">
<path d="M15.3602 25.2016H26.4475C28.2132 25.2016 29.6464 26.6348 29.6464 28.4005C29.6464 30.1662 28.2132 31.5995 26.4475 31.5995H15.3602C13.5945 31.5995 12.1613 30.1662 12.1613 28.4005C12.1613 26.6348 13.5945 25.2016 15.3602 25.2016Z" fill="url(#paint0_linear)"/>
<path d="M36.0023 0H14.4888C12.7231 0 11.2899 1.43321 11.2899 3.19893C11.2899 4.96465 12.7231 6.39786 14.4888 6.39786H23.627C26.4972 6.39786 28.8286 8.7254 28.8286 11.5995C28.8286 14.4735 26.501 16.8011 23.627 16.8011H3.19893C1.43321 16.8011 0 18.2343 0 20C0 21.7657 1.43321 23.1989 3.19893 23.1989H26.4475C29.3178 23.1989 31.6491 25.5265 31.6491 28.4005C31.6491 31.2708 29.3216 33.6021 26.4475 33.6021H8.84387C7.07816 33.6021 5.64495 35.0354 5.64495 36.8011C5.64495 38.5668 7.07816 40 8.84387 40H36.0023C47.0476 40 56.0023 31.0453 56.0023 20C56.0023 8.95471 47.0476 0 36.0023 0ZM37.8292 31.8632C36.866 32.0084 36.0023 31.2517 36.0023 30.2771V9.72291C36.0023 8.74833 36.866 7.99159 37.8292 8.13682C43.5888 9.01586 48.0031 13.992 48.0031 20C48.0031 26.008 43.5888 30.9841 37.8292 31.8632Z" fill="url(#paint1_linear)"/>
<path d="M6.95967 31.5995C8.72639 31.5995 10.1586 30.1672 10.1586 28.4005C10.1586 26.6338 8.72639 25.2016 6.95967 25.2016C5.19295 25.2016 3.76074 26.6338 3.76074 28.4005C3.76074 30.1672 5.19295 31.5995 6.95967 31.5995Z" fill="url(#paint2_linear)"/>
<path d="M15.2264 8.40054H8.90883C7.14311 8.40054 5.7099 9.83376 5.7099 11.5995C5.7099 13.3652 7.14311 14.7984 8.90883 14.7984H15.2226C16.9883 14.7984 18.4215 13.3652 18.4215 11.5995C18.4254 9.83376 16.9921 8.40054 15.2264 8.40054Z" fill="url(#paint3_linear)"/>
<path d="M23.627 14.7984C25.3938 14.7984 26.826 13.3662 26.826 11.5995C26.826 9.83275 25.3938 8.40054 23.627 8.40054C21.8603 8.40054 20.4281 9.83275 20.4281 11.5995C20.4281 13.3662 21.8603 14.7984 23.627 14.7984Z" fill="url(#paint4_linear)"/>
<g style="mix-blend-mode:overlay">
<path d="M8.84385 34.7296C7.70111 34.7296 6.77239 35.6583 6.77239 36.8011C6.77239 37.9438 7.70111 38.8726 8.84385 38.8726H36.0023C46.4093 38.8726 54.8748 30.407 54.8748 20C54.8748 9.59298 46.4055 1.12747 36.0023 1.12747H14.4888C13.3461 1.12747 12.4173 2.05619 12.4173 3.19894C12.4173 4.34169 13.3461 5.27041 14.4888 5.27041H23.6231C27.1125 5.27041 29.9522 8.11008 29.9522 11.5995C29.9522 15.0889 27.1125 17.9285 23.6231 17.9285H3.19891C2.05616 17.9285 1.12744 18.8573 1.12744 20C1.12744 21.1428 2.05616 22.0715 3.19891 22.0715H26.4475C29.9369 22.0715 32.7766 24.9112 32.7766 28.4005C32.7766 31.8899 29.9369 34.7296 26.4475 34.7296H8.84385ZM37.5922 33.0098C36.9501 33.0098 36.3233 32.7804 35.8265 32.3524C35.2188 31.8326 34.871 31.0759 34.871 30.2771V9.72292C34.871 8.92415 35.2188 8.16741 35.8265 7.64763C36.4265 7.13168 37.2176 6.90236 37.9973 7.02466C44.3455 7.99542 49.1305 13.5716 49.1305 20.0038C49.1305 26.4323 44.3455 32.0122 37.9973 32.983C37.8635 32.9983 37.7259 33.0098 37.5922 33.0098Z" fill="url(#paint5_linear)"/>
</g>
<defs>
<linearGradient id="paint0_linear" x1="12.1604" y1="28.401" x2="29.6489" y2="28.401" gradientUnits="userSpaceOnUse">
<stop stop-color="#B2D235"/>
<stop offset="1" stop-color="#00B26B"/>
</linearGradient>
<linearGradient id="paint1_linear" x1="0" y1="20.0007" x2="56.0021" y2="20.0007" gradientUnits="userSpaceOnUse">
<stop stop-color="#ED1846"/>
<stop offset="1" stop-color="#AE2048"/>
</linearGradient>
<linearGradient id="paint2_linear" x1="3.76013" y1="28.401" x2="10.1604" y2="28.401" gradientUnits="userSpaceOnUse">
<stop stop-color="#03BFD7"/>
<stop offset="1" stop-color="#008EAC"/>
</linearGradient>
<linearGradient id="paint3_linear" x1="5.71059" y1="11.6004" x2="18.4255" y2="11.6004" gradientUnits="userSpaceOnUse">
<stop stop-color="#FFD400"/>
<stop offset="1" stop-color="#F15A22"/>
</linearGradient>
<linearGradient id="paint4_linear" x1="20.4257" y1="11.6004" x2="26.8259" y2="11.6004" gradientUnits="userSpaceOnUse">
<stop offset="0.00558659" stop-color="#F04E23"/>
<stop offset="1" stop-color="#DA2128"/>
</linearGradient>
<linearGradient id="paint5_linear" x1="1.12886" y1="20.0008" x2="54.8732" y2="20.0008" gradientUnits="userSpaceOnUse">
<stop offset="0.4" stop-color="white" stop-opacity="0"/>
<stop offset="1" stop-color="white"/>
</linearGradient>
</defs>
</svg>
