<svg width="241" height="41" viewBox="0 0 241 41" fill="none" xmlns="http://www.w3.org/2000/svg">
<path d="M15.3607 25.201H26.4491C28.2156 25.201 29.6508 26.6315 29.6508 28.4027C29.6508 30.1692 28.2204 31.6045 26.4491 31.6045H15.3607C13.5942 31.6045 12.1589 30.174 12.1589 28.4027C12.1589 26.6315 13.5942 25.201 15.3607 25.201Z" fill="url(#paint0_linear)"/>
<path d="M36.0014 0H14.4918C12.7253 0 11.2901 1.43046 11.2901 3.20173C11.2901 4.973 12.7205 6.40346 14.4918 6.40346H23.6265C26.4971 6.40346 28.8252 8.73155 28.8252 11.6021C28.8252 14.4726 26.4971 16.8007 23.6265 16.8007H3.20173C1.43046 16.8007 0 18.2311 0 20.0024C0 21.7689 1.43046 23.2041 3.20173 23.2041H26.4491C29.3196 23.2041 31.6477 25.5322 31.6477 28.4027C31.6477 31.2733 29.3196 33.6013 26.4491 33.6013H8.84675C7.08028 33.6013 5.64503 35.0318 5.64503 36.8031C5.64503 38.5695 7.07548 40.0048 8.84675 40.0048H36.0014C47.0467 40.0048 56.0038 31.0524 56.0038 20.0024C56.0038 8.95236 47.0467 0 36.0014 0ZM37.8255 31.8637C36.8655 32.0125 36.0014 31.2493 36.0014 30.2796V9.72519C36.0014 8.75075 36.8655 7.99232 37.8255 8.14113C43.5857 9.01956 48.0019 13.9974 48.0019 20.0024C48.0019 26.0074 43.5905 30.9852 37.8255 31.8637Z" fill="url(#paint1_linear)"/>
<path d="M6.96027 31.6045C8.72854 31.6045 10.162 30.171 10.162 28.4027C10.162 26.6345 8.72854 25.201 6.96027 25.201C5.19201 25.201 3.75854 26.6345 3.75854 28.4027C3.75854 30.171 5.19201 31.6045 6.96027 31.6045Z" fill="url(#paint2_linear)"/>
<path d="M15.2263 8.40033H8.90925C7.14278 8.40033 5.70752 9.83079 5.70752 11.6021C5.70752 13.3685 7.13798 14.8038 8.90925 14.8038H15.2263C16.9928 14.8038 18.428 13.3733 18.428 11.6021C18.428 9.83079 16.9928 8.40033 15.2263 8.40033Z" fill="url(#paint3_linear)"/>
<path d="M23.6265 14.8038C25.3948 14.8038 26.8283 13.3703 26.8283 11.6021C26.8283 9.83379 25.3948 8.40033 23.6265 8.40033C21.8583 8.40033 20.4248 9.83379 20.4248 11.6021C20.4248 13.3703 21.8583 14.8038 23.6265 14.8038Z" fill="url(#paint4_linear)"/>
<g style="mix-blend-mode:overlay">
<path d="M8.84672 34.7293C7.70428 34.7293 6.77784 35.6606 6.77784 36.7982C6.77784 37.9407 7.70908 38.8671 8.84672 38.8671H36.0014C46.4082 38.8671 54.871 30.3996 54.871 19.9975C54.871 9.59553 46.4082 1.12799 36.0014 1.12799H14.4917C13.3493 1.12799 12.4229 2.05923 12.4229 3.19687C12.4229 4.33932 13.3541 5.26576 14.4917 5.26576H23.6265C27.1163 5.26576 29.958 8.10267 29.958 11.5924C29.958 15.0821 27.1163 17.9239 23.6265 17.9239H3.2017C2.05925 17.9239 1.13281 18.8551 1.13281 19.9927C1.13281 21.1352 2.06405 22.0616 3.2017 22.0616H26.449C29.9388 22.0616 32.7805 24.8985 32.7805 28.3931C32.7805 31.8876 29.9388 34.7293 26.449 34.7293H8.84672ZM37.5903 33.0109C36.947 33.0109 36.323 32.7805 35.8286 32.3532C35.2238 31.83 34.8734 31.0764 34.8734 30.2748V9.72513C34.8734 8.9283 35.219 8.16987 35.8286 7.64665C36.4286 7.13303 37.2207 6.90262 37.9983 7.02263C44.3441 7.99227 49.1299 13.5701 49.1299 20.0023C49.1299 26.4298 44.3441 32.0124 37.9983 32.9821C37.8639 33.0013 37.7247 33.0109 37.5903 33.0109Z" fill="url(#paint5_linear)"/>
</g>
<path d="M66.6699 10.7814C66.6699 9.94621 67.0875 9.52859 67.894 9.52859H73.8942C77.2063 9.52859 79.832 10.455 81.7713 12.3319C83.7106 14.2136 84.6946 16.7769 84.6946 20.089C84.6946 23.4011 83.7106 25.9981 81.7713 27.8797C79.832 29.7614 77.2063 30.7166 73.8942 30.7166H67.894C67.0875 30.7166 66.6699 30.299 66.6699 29.4638V10.7814ZM70.4909 27.3997H73.683C78.0704 27.3997 80.7249 24.774 80.7249 20.089C80.7249 15.4616 78.008 12.8359 73.683 12.8359H70.4909V27.3997Z" fill="#241F59"/>
<path d="M88.3619 17.3767C89.7924 15.8838 91.6452 15.1398 93.9445 15.1398C96.0614 15.1398 97.7031 15.8262 98.8983 17.1703C100.094 18.5143 100.689 20.2424 100.689 22.3929C100.689 23.0793 100.094 23.6745 99.3736 23.6745H90.09C90.33 26.3002 92.2405 27.8507 94.655 27.8507C95.7878 27.8507 96.8919 27.5243 97.9383 26.8666C98.6823 26.5066 99.2535 26.6554 99.6088 27.2843L99.9688 27.8795C100.358 28.5947 100.209 29.1611 99.5512 29.5499C97.9671 30.5628 96.239 31.0716 94.3862 31.0716C91.9381 31.0716 89.97 30.294 88.4483 28.7723C86.9555 27.2219 86.2114 25.3402 86.2114 23.1033C86.2162 20.7464 86.9315 18.8359 88.3619 17.3767ZM96.9303 21.3752C96.9015 19.3159 95.615 18.0007 93.8581 18.0007C91.9477 18.0007 90.546 19.3159 90.186 21.3752H96.9303Z" fill="#241F59"/>
<path d="M104.635 22.2393C106.574 21.5528 108.336 21.3128 110.337 21.3128H110.966V20.9528C110.966 19.1624 110.011 18.2647 108.129 18.2647C107.083 18.2647 106.041 18.5623 104.966 19.1287C104.188 19.4552 103.622 19.3064 103.296 18.6199L102.998 18.0535C102.609 17.3095 102.787 16.7719 103.473 16.383C105.115 15.5478 106.756 15.1302 108.456 15.1302C112.397 15.1302 114.754 17.3671 114.754 21.188V29.454C114.754 30.2892 114.336 30.7068 113.501 30.7068H112.488C111.681 30.7068 111.264 30.2892 111.264 29.454V28.8587L111.321 28.2011H111.264C111.173 28.3499 111.115 28.5275 110.549 29.214C109.833 30.0204 108.489 31.0668 106.488 31.0668C105.086 31.0668 103.891 30.6492 102.907 29.814C101.923 28.9499 101.443 27.8459 101.443 26.5018C101.443 24.3898 102.724 22.9257 104.635 22.2393ZM107.5 28.1771C108.513 28.1771 109.349 27.7595 110.006 26.9243C110.664 26.089 110.99 25.1626 110.99 24.1786V23.6121H110.361C106.929 23.6121 105.196 24.4762 105.196 26.1802C105.201 27.2507 106.07 28.1771 107.5 28.1771Z" fill="#241F59"/>
<path d="M117.461 10.7814C117.461 9.94621 117.878 9.52859 118.685 9.52859H120C120.806 9.52859 121.224 9.94621 121.224 10.7814V25.6716C121.224 26.8045 121.613 27.4045 122.419 27.4909C123.048 27.5485 123.346 27.9085 123.346 28.5662V29.579C123.346 30.443 122.928 30.8606 122.093 30.8606C120.898 30.8606 120.034 30.683 119.05 30.083C118.066 29.4542 117.465 28.0237 117.465 25.9645V10.7814H117.461Z" fill="#241F59"/>
<path d="M131.785 34.2638C132.053 33.6685 132.5 33.4285 133.129 33.5773C133.517 33.755 133.873 33.8462 134.204 33.8462C135.25 33.8462 136.143 32.9821 136.623 31.8157L137.19 30.4716L131.401 16.9543C131.012 16.0902 131.401 15.4902 132.356 15.4902H133.969C134.655 15.4902 135.135 15.8166 135.37 16.5031L138.236 24.2602L138.802 26.3195H138.86C139.038 25.513 139.22 24.8554 139.369 24.3178L142.057 16.5271C142.268 15.8406 142.715 15.4806 143.459 15.4806H144.951C145.878 15.4806 146.296 16.047 145.964 16.9111L139.695 32.9677C138.711 35.6222 136.59 36.9663 134.204 36.9663C133.575 36.9663 132.86 36.8175 132.087 36.5199C131.372 36.2511 131.16 35.5934 131.521 34.907L131.785 34.2638Z" fill="#241F59"/>
<path d="M160.158 28.8348C158.546 30.3277 156.578 31.0717 154.221 31.0717C151.864 31.0717 149.891 30.3277 148.283 28.8348C146.67 27.3132 145.864 25.4027 145.864 23.1034C145.864 20.8041 146.67 18.8937 148.283 17.4008C149.896 15.8791 151.864 15.1351 154.221 15.1351C156.578 15.1351 158.546 15.8791 160.158 17.4008C161.8 18.9225 162.607 20.8041 162.607 23.1034C162.607 25.4027 161.8 27.3132 160.158 28.8348ZM150.995 26.5356C151.859 27.3996 152.934 27.8508 154.221 27.8508C155.502 27.8508 156.578 27.4044 157.442 26.5356C158.306 25.6379 158.757 24.5051 158.757 23.1034C158.757 21.7306 158.31 20.5977 157.413 19.7001C156.549 18.8024 155.474 18.356 154.221 18.356C152.968 18.356 151.893 18.8024 151.029 19.7001C150.165 20.5977 149.713 21.7306 149.713 23.1034C149.713 24.5051 150.131 25.6427 150.995 26.5356Z" fill="#241F59"/>
<path d="M164.426 16.748C164.426 15.9127 164.843 15.4951 165.679 15.4951H166.96C167.796 15.4951 168.213 15.9127 168.213 16.748V24.5051C168.213 26.5356 168.808 27.6108 170.57 27.6108C171.885 27.6108 172.927 27.102 173.676 26.1179C174.453 25.1339 174.842 23.9099 174.842 22.4746V16.748C174.842 15.9127 175.26 15.4951 176.095 15.4951H177.377C178.212 15.4951 178.63 15.9127 178.63 16.748V29.4637C178.63 30.2989 178.212 30.7165 177.377 30.7165H176.215C175.409 30.7165 174.991 30.2989 174.991 29.4637V28.566L175.049 27.8796H174.991C174.185 29.5789 172.125 31.0717 169.706 31.0717C166.183 31.0717 164.426 29.1325 164.426 25.2827V16.748Z" fill="#241F59"/>
<path d="M181.548 16.748C181.548 15.9127 181.966 15.4951 182.772 15.4951H183.939C184.774 15.4951 185.191 15.9127 185.191 16.748V18.1784L185.1 19.2249H185.158C185.484 18.212 186.055 17.3144 186.857 16.5368C187.663 15.7591 188.59 15.3751 189.574 15.3751C190.318 15.3751 190.707 15.7927 190.707 16.628V17.7896C190.707 18.6249 190.289 19.0425 189.425 19.0425C188.11 19.0425 187.097 19.5801 186.382 20.6841C185.667 21.7594 185.307 23.041 185.307 24.5627V29.4589C185.307 30.2941 184.889 30.7117 184.083 30.7117H182.767C181.961 30.7117 181.543 30.2941 181.543 29.4589V16.748H181.548Z" fill="#241F59"/>
<path d="M200.408 18.716H199.664C198.858 18.716 198.44 18.2984 198.44 17.4632V16.9544C198.44 16.1191 198.858 15.7015 199.664 15.7015H200.408V14.9863C200.408 13.167 201.123 11.6741 201.992 10.9253C203.485 9.70127 205.213 9.40366 206.231 9.40366H206.677C207.483 9.40366 207.901 9.82127 207.901 10.6565V11.4341C207.901 12.1782 207.483 12.5958 206.619 12.6582C206.024 12.687 205.664 12.7494 205.069 13.0758C204.503 13.4022 204.205 14.0886 204.205 15.1351V15.7015H206.235C207.042 15.7015 207.459 16.1191 207.459 16.9544V17.4632C207.459 18.2984 207.042 18.716 206.235 18.716H204.205V29.4589C204.205 30.2941 203.787 30.7117 202.952 30.7117H201.637C200.83 30.7117 200.413 30.2941 200.413 29.4589V18.716H200.408Z" fill="#241F59"/>
<path d="M208.564 16.748C208.564 15.9127 208.981 15.4951 209.817 15.4951H211.098C211.933 15.4951 212.351 15.9127 212.351 16.748V24.5051C212.351 26.5356 212.946 27.6108 214.708 27.6108C216.023 27.6108 217.065 27.102 217.814 26.1179C218.591 25.1339 218.975 23.9099 218.975 22.4746V16.748C218.975 15.9127 219.393 15.4951 220.228 15.4951H221.51C222.345 15.4951 222.763 15.9127 222.763 16.748V29.4637C222.763 30.2989 222.345 30.7165 221.51 30.7165H220.348C219.542 30.7165 219.124 30.2989 219.124 29.4637V28.566L219.182 27.8796H219.124C218.318 29.5789 216.258 31.0717 213.844 31.0717C210.321 31.0717 208.564 29.1325 208.564 25.2827V16.748Z" fill="#241F59"/>
<path d="M225.686 16.7478C225.686 15.9126 226.103 15.495 226.91 15.495H228.071C228.878 15.495 229.296 15.9126 229.296 16.7478V17.6743L229.238 18.3607H229.296C230.131 16.6902 231.95 15.1398 234.696 15.1398C238.248 15.1398 240.01 17.079 240.01 20.9288V29.4635C240.01 30.2988 239.592 30.7164 238.757 30.7164H237.475C236.64 30.7164 236.222 30.2988 236.222 29.4635V21.7016C236.222 19.6712 235.627 18.5959 233.837 18.5959C232.521 18.5959 231.451 19.0711 230.644 20.0264C229.838 20.9816 229.449 22.1769 229.449 23.5785V29.4587C229.449 30.294 229.032 30.7116 228.225 30.7116H226.91C226.103 30.7116 225.686 30.294 225.686 29.4587V16.7478Z" fill="#241F59"/>
<defs>
<linearGradient id="paint0_linear" x1="12.1605" y1="28.4012" x2="29.6491" y2="28.4012" gradientUnits="userSpaceOnUse">
<stop stop-color="#B1D135"/>
<stop offset="1" stop-color="#00B06B"/>
</linearGradient>
<linearGradient id="paint1_linear" x1="0" y1="20.0008" x2="56.0023" y2="20.0008" gradientUnits="userSpaceOnUse">
<stop stop-color="#EB1846"/>
<stop offset="1" stop-color="#AD2048"/>
</linearGradient>
<linearGradient id="paint2_linear" x1="3.76018" y1="28.4012" x2="10.1604" y2="28.4012" gradientUnits="userSpaceOnUse">
<stop stop-color="#00BCD5"/>
<stop offset="1" stop-color="#008CAA"/>
</linearGradient>
<linearGradient id="paint3_linear" x1="5.71074" y1="11.6005" x2="18.4257" y2="11.6005" gradientUnits="userSpaceOnUse">
<stop stop-color="#FFD200"/>
<stop offset="1" stop-color="#EF5A22"/>
</linearGradient>
<linearGradient id="paint4_linear" x1="20.4257" y1="11.6005" x2="26.826" y2="11.6005" gradientUnits="userSpaceOnUse">
<stop offset="0.00558659" stop-color="#EE4E23"/>
<stop offset="1" stop-color="#D92128"/>
</linearGradient>
<linearGradient id="paint5_linear" x1="1.12883" y1="20.0008" x2="54.8734" y2="20.0008" gradientUnits="userSpaceOnUse">
<stop offset="0.4" stop-color="white" stop-opacity="0"/>
<stop offset="1" stop-color="white"/>
</linearGradient>
</defs>
</svg>
