<svg width="88" height="15" viewBox="0 0 88 15" fill="none" xmlns="http://www.w3.org/2000/svg">
<path d="M79.817 3.01577L81.3544 6.18265L84.8367 6.66229L82.3006 9.09987L82.9182 12.5624L79.817 10.9001L76.7158 12.5624L77.3334 9.09987L74.7973 6.66229L78.2795 6.18265L79.817 3.01577ZM79.817 0L77.4057 4.97372L71.9326 5.7293L75.9142 9.55979L74.9418 15L79.817 12.3916L84.6921 15L83.7197 9.55979L87.7013 5.7293L82.2283 4.97372L79.817 0Z" fill="#FFD400"/>
<path d="M7.88436 0L5.47306 4.97372L0 5.7293L3.9816 9.55979L3.0092 15L7.88436 12.3916L12.7595 15L11.7871 9.55979L15.7687 5.7293L10.2957 4.97372L7.88436 0Z" fill="#FFD400"/>
<path d="M25.817 0L23.4057 4.97372L17.9326 5.7293L21.9142 9.55979L20.9418 15L25.817 12.3916L30.6921 15L29.7197 9.55979L33.7013 5.7293L28.2283 4.97372L25.817 0Z" fill="#FFD400"/>
<path d="M43.817 0L41.4057 4.97372L35.9326 5.7293L39.9142 9.55979L38.9418 15L43.817 12.3916L48.6921 15L47.7197 9.55979L51.7013 5.7293L46.2283 4.97372L43.817 0Z" fill="#FFD400"/>
<path d="M61.817 0L59.4057 4.97372L53.9326 5.7293L57.9142 9.55979L56.9418 15L61.817 12.3916L66.6921 15L65.7197 9.55979L69.7013 5.7293L64.2283 4.97372L61.817 0Z" fill="#FFD400"/>
</svg>
