<svg width="80" height="80" viewBox="0 0 80 80" fill="none" xmlns="http://www.w3.org/2000/svg">
<path d="M40 0C17.9 0 0 17.9 0 40C0 62.1 17.9 80 40 80C62.1 80 80 62.1 80 40C80 17.9 62.1 0 40 0ZM65.8333 61.0333C64.9667 59.0667 63.2 57.7333 59.6 56.9C51.9667 55.1333 44.8333 53.6 48.3 47.0667C58.7667 27.2667 51.0667 16.6667 40 16.6667C28.7 16.6667 21.2 27.6667 31.7 47.0667C35.2667 53.6 27.8667 55.1667 20.4 56.9C16.8 57.7333 15.0333 59.1 14.1667 61.0667C9.5 55.3 6.66667 47.9667 6.66667 40C6.66667 21.6333 21.6333 6.66667 40 6.66667C58.3667 6.66667 73.3333 21.6333 73.3333 40C73.3333 47.9667 70.5333 55.2667 65.8333 61.0333Z" fill="#C4C4C4"/>
</svg>
